{
	"asset":{
		"generator":"Khronos glTF Blender I/O v4.5.48",
		"version":"2.0"
	},
	"scene":0,
	"scenes":[
		{
			"name":"Scene",
			"nodes":[
				0,
				1,
				2,
				3,
				4
			]
		}
	],
	"nodes":[
		{
			"mesh":0,
			"name":"Cube"
		},
		{
			"mesh":1,
			"name":"Cylinder"
		},
		{
			"mesh":2,
			"name":"Cylinder.001"
		},
		{
			"mesh":3,
			"name":"Cylinder.002"
		},
		{
			"mesh":4,
			"name":"Cylinder.003"
		}
	],
	"materials":[
		{
			"alphaMode":"BLEND",
			"name":"ground1",
			"pbrMetallicRoughness":{
				"baseColorTexture":{
					"index":0
				},
				"metallicFactor":0
			}
		},
		{
			"alphaMode":"BLEND",
			"name":"ground2",
			"pbrMetallicRoughness":{
				"baseColorTexture":{
					"index":1
				},
				"metallicFactor":0
			}
		},
		{
			"alphaMode":"BLEND",
			"name":"clouds",
			"pbrMetallicRoughness":{
				"baseColorTexture":{
					"index":2
				},
				"metallicFactor":0
			}
		},
		{
			"alphaMode":"BLEND",
			"name":"clouds2",
			"pbrMetallicRoughness":{
				"baseColorTexture":{
					"index":3
				},
				"metallicFactor":0
			}
		}
	],
	"meshes":[
		{
			"name":"Cube.002",
			"primitives":[
				{
					"attributes":{
						"POSITION":0,
						"NORMAL":1,
						"TEXCOORD_0":2
					},
					"indices":3
				}
			]
		},
		{
			"name":"Cylinder",
			"primitives":[
				{
					"attributes":{
						"POSITION":4,
						"NORMAL":5,
						"TEXCOORD_0":6
					},
					"indices":7,
					"material":0
				}
			]
		},
		{
			"name":"Cylinder.001",
			"primitives":[
				{
					"attributes":{
						"POSITION":8,
						"NORMAL":9,
						"TEXCOORD_0":10
					},
					"indices":7,
					"material":1
				}
			]
		},
		{
			"name":"Cylinder.002",
			"primitives":[
				{
					"attributes":{
						"POSITION":11,
						"NORMAL":12,
						"TEXCOORD_0":13
					},
					"indices":7,
					"material":2
				}
			]
		},
		{
			"name":"Cylinder.003",
			"primitives":[
				{
					"attributes":{
						"POSITION":14,
						"NORMAL":15,
						"TEXCOORD_0":16
					},
					"indices":7,
					"material":3
				}
			]
		}
	],
	"textures":[
		{
			"sampler":0,
			"source":0
		},
		{
			"sampler":0,
			"source":1
		},
		{
			"sampler":0,
			"source":2
		},
		{
			"sampler":0,
			"source":3
		}
	],
	"images":[
		{
			"mimeType":"image/png",
			"name":"ground",
			"uri":"textures/ground.png"
		},
		{
			"mimeType":"image/png",
			"name":"rocks",
			"uri":"textures/rocks.png"
		},
		{
			"mimeType":"image/png",
			"name":"clouds_1",
			"uri":"textures/clouds_1.png"
		},
		{
			"mimeType":"image/png",
			"name":"clouds_2",
			"uri":"textures/clouds_2.png"
		}
	],
	"accessors":[
		{
			"bufferView":0,
			"componentType":5126,
			"count":24,
			"max":[
				1,
				1,
				1
			],
			"min":[
				-1,
				-1,
				-1
			],
			"type":"VEC3"
		},
		{
			"bufferView":1,
			"componentType":5126,
			"count":24,
			"type":"VEC3"
		},
		{
			"bufferView":2,
			"componentType":5126,
			"count":24,
			"type":"VEC2"
		},
		{
			"bufferView":3,
			"componentType":5123,
			"count":36,
			"type":"SCALAR"
		},
		{
			"bufferView":4,
			"componentType":5126,
			"count":104,
			"max":[
				7.360633373260498,
				1.918810248374939,
				7.414694786071777
			],
			"min":[
				-7.360633373260498,
				-1,
				-7.414694786071777
			],
			"type":"VEC3"
		},
		{
			"bufferView":5,
			"componentType":5126,
			"count":104,
			"type":"VEC3"
		},
		{
			"bufferView":6,
			"componentType":5126,
			"count":104,
			"type":"VEC2"
		},
		{
			"bufferView":7,
			"componentType":5123,
			"count":156,
			"type":"SCALAR"
		},
		{
			"bufferView":8,
			"componentType":5126,
			"count":104,
			"max":[
				6.032273292541504,
				0.2797006070613861,
				6.076578140258789
			],
			"min":[
				-6.032273292541504,
				-1,
				-6.076578140258789
			],
			"type":"VEC3"
		},
		{
			"bufferView":9,
			"componentType":5126,
			"count":104,
			"type":"VEC3"
		},
		{
			"bufferView":10,
			"componentType":5126,
			"count":104,
			"type":"VEC2"
		},
		{
			"bufferView":11,
			"componentType":5126,
			"count":104,
			"max":[
				9.267701148986816,
				4.306368350982666,
				9.335769653320312
			],
			"min":[
				-9.267701148986816,
				1.3875579833984375,
				-9.335769653320312
			],
			"type":"VEC3"
		},
		{
			"bufferView":12,
			"componentType":5126,
			"count":104,
			"type":"VEC3"
		},
		{
			"bufferView":13,
			"componentType":5126,
			"count":104,
			"type":"VEC2"
		},
		{
			"bufferView":14,
			"componentType":5126,
			"count":104,
			"max":[
				13.697434425354004,
				6.722123622894287,
				13.7980375289917
			],
			"min":[
				-13.697434425354004,
				1.2297172546386719,
				-13.7980375289917
			],
			"type":"VEC3"
		},
		{
			"bufferView":15,
			"componentType":5126,
			"count":104,
			"type":"VEC3"
		},
		{
			"bufferView":16,
			"componentType":5126,
			"count":104,
			"type":"VEC2"
		}
	],
	"bufferViews":[
		{
			"buffer":0,
			"byteLength":288,
			"byteOffset":0,
			"target":34962
		},
		{
			"buffer":0,
			"byteLength":288,
			"byteOffset":288,
			"target":34962
		},
		{
			"buffer":0,
			"byteLength":192,
			"byteOffset":576,
			"target":34962
		},
		{
			"buffer":0,
			"byteLength":72,
			"byteOffset":768,
			"target":34963
		},
		{
			"buffer":0,
			"byteLength":1248,
			"byteOffset":840,
			"target":34962
		},
		{
			"buffer":0,
			"byteLength":1248,
			"byteOffset":2088,
			"target":34962
		},
		{
			"buffer":0,
			"byteLength":832,
			"byteOffset":3336,
			"target":34962
		},
		{
			"buffer":0,
			"byteLength":312,
			"byteOffset":4168,
			"target":34963
		},
		{
			"buffer":0,
			"byteLength":1248,
			"byteOffset":4480,
			"target":34962
		},
		{
			"buffer":0,
			"byteLength":1248,
			"byteOffset":5728,
			"target":34962
		},
		{
			"buffer":0,
			"byteLength":832,
			"byteOffset":6976,
			"target":34962
		},
		{
			"buffer":0,
			"byteLength":1248,
			"byteOffset":7808,
			"target":34962
		},
		{
			"buffer":0,
			"byteLength":1248,
			"byteOffset":9056,
			"target":34962
		},
		{
			"buffer":0,
			"byteLength":832,
			"byteOffset":10304,
			"target":34962
		},
		{
			"buffer":0,
			"byteLength":1248,
			"byteOffset":11136,
			"target":34962
		},
		{
			"buffer":0,
			"byteLength":1248,
			"byteOffset":12384,
			"target":34962
		},
		{
			"buffer":0,
			"byteLength":832,
			"byteOffset":13632,
			"target":34962
		}
	],
	"samplers":[
		{
			"magFilter":9729,
			"minFilter":9987
		}
	],
	"buffers":[
		{
			"byteLength":14464,
			"uri":"scene1.bin"
		}
	]
}
